# Blender v2.77 (sub 0) OBJ File: 'machinearm_base.blend'
# www.blender.org
mtllib machinearm_base.mtl
o Cube
v 1.000000 0.000000 -1.000000
v 1.000000 0.000000 1.000000
v -1.000000 0.000000 1.000000
v -1.000000 0.000000 -1.000000
v 1.000000 0.255549 -0.999999
v 0.999999 0.255549 1.000001
v -1.000000 0.255549 1.000000
v -1.000000 0.255549 -1.000000
v 0.704354 0.395135 -0.704353
v 0.704353 0.395135 0.704354
v -0.704354 0.395135 -0.704354
v -0.704354 0.395135 0.704354
v 0.000000 0.346820 -0.388154
v 0.000000 0.501826 -0.388154
v 0.075725 0.346820 -0.380696
v 0.075725 0.501826 -0.380696
v 0.148540 0.346820 -0.358608
v 0.148540 0.501826 -0.358608
v 0.215647 0.346820 -0.322739
v 0.215647 0.501826 -0.322739
v 0.274466 0.346820 -0.274467
v 0.274466 0.501826 -0.274467
v 0.322738 0.346820 -0.215647
v 0.322738 0.501826 -0.215647
v 0.358608 0.346820 -0.148540
v 0.358608 0.501826 -0.148540
v 0.380696 0.346820 -0.075725
v 0.380696 0.501826 -0.075725
v 0.388154 0.346820 -0.000000
v 0.388154 0.501826 -0.000000
v 0.380696 0.346820 0.075725
v 0.380696 0.501826 0.075725
v 0.358608 0.346820 0.148540
v 0.358608 0.501826 0.148540
v 0.322738 0.346820 0.215647
v 0.322738 0.501826 0.215647
v 0.274466 0.346820 0.274466
v 0.274466 0.501826 0.274466
v 0.215647 0.346820 0.322738
v 0.215647 0.501826 0.322738
v 0.148540 0.346820 0.358607
v 0.148540 0.501826 0.358607
v 0.075725 0.346820 0.380696
v 0.075725 0.501826 0.380696
v -0.000000 0.346820 0.388154
v -0.000000 0.501826 0.388154
v -0.075725 0.346820 0.380696
v -0.075725 0.501826 0.380696
v -0.148540 0.346820 0.358607
v -0.148540 0.501826 0.358607
v -0.215647 0.346820 0.322738
v -0.215647 0.501826 0.322738
v -0.274467 0.346820 0.274466
v -0.274467 0.501826 0.274466
v -0.322738 0.346820 0.215646
v -0.322738 0.501826 0.215646
v -0.358608 0.346820 0.148540
v -0.358608 0.501826 0.148540
v -0.380696 0.346820 0.075725
v -0.380696 0.501826 0.075725
v -0.388154 0.346820 -0.000001
v -0.388154 0.501826 -0.000001
v -0.380696 0.346820 -0.075726
v -0.380696 0.501826 -0.075726
v -0.358607 0.346820 -0.148541
v -0.358607 0.501826 -0.148541
v -0.322738 0.346820 -0.215647
v -0.322738 0.501826 -0.215647
v -0.274466 0.346820 -0.274467
v -0.274466 0.501826 -0.274467
v -0.215646 0.346820 -0.322739
v -0.215646 0.501826 -0.322739
v -0.148540 0.346820 -0.358608
v -0.148540 0.501826 -0.358608
v -0.075724 0.346820 -0.380696
v -0.075724 0.501826 -0.380696
vt 0.5000 0.0000
vt 0.5000 0.5214
vt 0.0000 0.5214
vt 0.0000 0.0000
vt 1.0000 0.0000
vt 1.0000 0.5214
vt 0.9261 0.4443
vt 0.9261 0.0771
vt 0.5779 0.5214
vt 0.6418 0.5214
vt 0.6418 1.0000
vt 0.5779 1.0000
vt 0.4502 1.0000
vt 0.3863 1.0000
vt 0.3863 0.5214
vt 0.4502 0.5214
vt 0.5141 0.5214
vt 0.5779 0.5214
vt 0.5779 1.0000
vt 0.5141 1.0000
vt 0.4502 0.5214
vt 0.5141 0.5214
vt 0.4502 1.0000
vt 0.5739 0.4443
vt 0.5739 0.0771
vt 0.5000 0.5214
vt 0.5000 0.0000
vt 0.7193 0.5539
vt 0.7581 0.5539
vt 0.7581 0.5728
vt 0.7193 0.5728
vt 0.7581 0.5925
vt 0.7193 0.5925
vt 0.7581 0.6123
vt 0.7193 0.6123
vt 0.7581 0.6314
vt 0.7193 0.6314
vt 0.7581 0.6490
vt 0.7193 0.6490
vt 0.7581 0.6645
vt 0.7193 0.6645
vt 0.6418 0.6645
vt 0.6806 0.6645
vt 0.6806 0.6797
vt 0.6418 0.6797
vt 0.6806 0.6970
vt 0.6418 0.6970
vt 0.6806 0.7159
vt 0.6418 0.7159
vt 0.6806 0.7356
vt 0.6418 0.7356
vt 0.6806 0.7554
vt 0.6418 0.7554
vt 0.6806 0.7744
vt 0.6418 0.7744
vt 0.6806 0.7921
vt 0.6418 0.7921
vt 0.6806 0.8076
vt 0.6418 0.8076
vt 0.7193 0.6645
vt 0.6806 0.6645
vt 0.6806 0.6494
vt 0.7193 0.6494
vt 0.6806 0.6320
vt 0.7193 0.6320
vt 0.6806 0.6131
vt 0.7193 0.6131
vt 0.6806 0.5934
vt 0.7193 0.5934
vt 0.6806 0.5737
vt 0.7193 0.5737
vt 0.6806 0.5546
vt 0.7193 0.5546
vt 0.6806 0.5370
vt 0.7193 0.5370
vt 0.6806 0.5214
vt 0.7193 0.5214
vt 0.6806 0.6645
vt 0.6418 0.6645
vt 0.6418 0.6494
vt 0.6806 0.6494
vt 0.6418 0.6320
vt 0.6806 0.6320
vt 0.6418 0.6131
vt 0.6806 0.6131
vt 0.6418 0.5934
vt 0.6806 0.5934
vt 0.6418 0.5737
vt 0.6806 0.5737
vt 0.6418 0.5546
vt 0.6806 0.5546
vt 0.6418 0.5370
vt 0.6806 0.5370
vt 0.6418 0.5214
vt 0.6806 0.5214
vt 0.0000 0.6321
vt 0.0000 0.6122
vt 0.0037 0.5928
vt 0.0110 0.5744
vt 0.0216 0.5579
vt 0.0350 0.5439
vt 0.0508 0.5329
vt 0.0684 0.5253
vt 0.0871 0.5214
vt 0.1061 0.5214
vt 0.1247 0.5253
vt 0.1423 0.5329
vt 0.1581 0.5439
vt 0.1716 0.5579
vt 0.1822 0.5744
vt 0.1894 0.5928
vt 0.1931 0.6122
vt 0.1931 0.6321
vt 0.1894 0.6515
vt 0.1822 0.6698
vt 0.1716 0.6863
vt 0.1581 0.7004
vt 0.1423 0.7114
vt 0.1247 0.7190
vt 0.1061 0.7228
vt 0.0871 0.7228
vt 0.0684 0.7190
vt 0.0508 0.7114
vt 0.0350 0.7004
vt 0.0216 0.6863
vt 0.0110 0.6698
vt 0.0037 0.6515
vt 0.7193 0.5214
vt 0.7581 0.5214
vt 0.7581 0.5366
vt 0.7193 0.5366
vt 0.1931 0.6321
vt 0.1931 0.6122
vt 0.1969 0.5928
vt 0.2041 0.5744
vt 0.2147 0.5579
vt 0.2282 0.5439
vt 0.2440 0.5329
vt 0.2615 0.5253
vt 0.2802 0.5214
vt 0.2992 0.5214
vt 0.3179 0.5253
vt 0.3355 0.5329
vt 0.3513 0.5439
vt 0.3647 0.5579
vt 0.3753 0.5744
vt 0.3826 0.5928
vt 0.3863 0.6122
vt 0.3863 0.6321
vt 0.3826 0.6515
vt 0.3753 0.6698
vt 0.3647 0.6863
vt 0.3513 0.7004
vt 0.3355 0.7114
vt 0.3179 0.7190
vt 0.2992 0.7228
vt 0.2802 0.7228
vt 0.2615 0.7190
vt 0.2440 0.7114
vt 0.2282 0.7004
vt 0.2147 0.6863
vt 0.2041 0.6698
vt 0.1969 0.6515
vn 0.0000 -1.0000 0.0000
vn -0.0000 0.9043 0.4269
vn 1.0000 0.0000 0.0000
vn -0.0000 -0.0000 1.0000
vn -1.0000 -0.0000 -0.0000
vn 0.0000 0.0000 -1.0000
vn 0.0000 1.0000 0.0000
vn 0.4269 0.9043 0.0000
vn -0.4269 0.9043 -0.0000
vn 0.0000 0.9043 -0.4269
vn 0.0980 0.0000 -0.9952
vn 0.2903 0.0000 -0.9569
vn 0.4714 0.0000 -0.8819
vn 0.6344 0.0000 -0.7730
vn 0.7730 0.0000 -0.6344
vn 0.8819 0.0000 -0.4714
vn 0.9569 0.0000 -0.2903
vn 0.9952 0.0000 -0.0980
vn 0.9952 0.0000 0.0980
vn 0.9569 0.0000 0.2903
vn 0.8819 0.0000 0.4714
vn 0.7730 0.0000 0.6344
vn 0.6344 0.0000 0.7730
vn 0.4714 0.0000 0.8819
vn 0.2903 0.0000 0.9569
vn 0.0980 0.0000 0.9952
vn -0.0980 0.0000 0.9952
vn -0.2903 0.0000 0.9569
vn -0.4714 0.0000 0.8819
vn -0.6344 0.0000 0.7730
vn -0.7730 0.0000 0.6344
vn -0.8819 0.0000 0.4714
vn -0.9569 0.0000 0.2903
vn -0.9952 0.0000 0.0980
vn -0.9952 0.0000 -0.0980
vn -0.9569 0.0000 -0.2903
vn -0.8819 0.0000 -0.4714
vn -0.7730 0.0000 -0.6344
vn -0.6344 0.0000 -0.7730
vn -0.4714 0.0000 -0.8819
vn -0.2903 0.0000 -0.9569
vn -0.0980 0.0000 -0.9952
usemtl Material
s off
f 1/1/1 2/2/1 3/3/1 4/4/1
f 7/5/2 6/6/2 10/7/2 12/8/2
f 1/9/3 5/10/3 6/11/3 2/12/3
f 2/13/4 6/14/4 7/15/4 3/16/4
f 3/17/5 7/18/5 8/19/5 4/20/5
f 5/21/6 1/22/6 4/20/6 8/23/6
f 9/24/7 11/25/7 12/8/7 10/7/7
f 6/6/8 5/26/8 9/24/8 10/7/8
f 8/27/9 7/5/9 12/8/9 11/25/9
f 5/26/10 8/27/10 11/25/10 9/24/10
f 13/28/11 14/29/11 16/30/11 15/31/11
f 15/31/12 16/30/12 18/32/12 17/33/12
f 17/33/13 18/32/13 20/34/13 19/35/13
f 19/35/14 20/34/14 22/36/14 21/37/14
f 21/37/15 22/36/15 24/38/15 23/39/15
f 23/39/16 24/38/16 26/40/16 25/41/16
f 25/42/17 26/43/17 28/44/17 27/45/17
f 27/45/18 28/44/18 30/46/18 29/47/18
f 29/47/19 30/46/19 32/48/19 31/49/19
f 31/49/20 32/48/20 34/50/20 33/51/20
f 33/51/21 34/50/21 36/52/21 35/53/21
f 35/53/22 36/52/22 38/54/22 37/55/22
f 37/55/23 38/54/23 40/56/23 39/57/23
f 39/57/24 40/56/24 42/58/24 41/59/24
f 41/60/25 42/61/25 44/62/25 43/63/25
f 43/63/26 44/62/26 46/64/26 45/65/26
f 45/65/27 46/64/27 48/66/27 47/67/27
f 47/67/28 48/66/28 50/68/28 49/69/28
f 49/69/29 50/68/29 52/70/29 51/71/29
f 51/71/30 52/70/30 54/72/30 53/73/30
f 53/73/31 54/72/31 56/74/31 55/75/31
f 55/75/32 56/74/32 58/76/32 57/77/32
f 57/78/33 58/79/33 60/80/33 59/81/33
f 59/81/34 60/80/34 62/82/34 61/83/34
f 61/83/35 62/82/35 64/84/35 63/85/35
f 63/85/36 64/84/36 66/86/36 65/87/36
f 65/87/37 66/86/37 68/88/37 67/89/37
f 67/89/38 68/88/38 70/90/38 69/91/38
f 69/91/39 70/90/39 72/92/39 71/93/39
f 71/93/40 72/92/40 74/94/40 73/95/40
f 16/96/7 14/97/7 76/98/7 74/99/7 72/100/7 70/101/7 68/102/7 66/103/7 64/104/7 62/105/7 60/106/7 58/107/7 56/108/7 54/109/7 52/110/7 50/111/7 48/112/7 46/113/7 44/114/7 42/115/7 40/116/7 38/117/7 36/118/7 34/119/7 32/120/7 30/121/7 28/122/7 26/123/7 24/124/7 22/125/7 20/126/7 18/127/7
f 73/128/41 74/129/41 76/130/41 75/131/41
f 75/131/42 76/130/42 14/29/42 13/28/42
f 13/132/1 15/133/1 17/134/1 19/135/1 21/136/1 23/137/1 25/138/1 27/139/1 29/140/1 31/141/1 33/142/1 35/143/1 37/144/1 39/145/1 41/146/1 43/147/1 45/148/1 47/149/1 49/150/1 51/151/1 53/152/1 55/153/1 57/154/1 59/155/1 61/156/1 63/157/1 65/158/1 67/159/1 69/160/1 71/161/1 73/162/1 75/163/1
