# Blender v2.77 (sub 0) OBJ File: 'machinearm_swivel.blend'
# www.blender.org
mtllib machinearm_swivel.mtl
o Cube.001_Cube.002
v 0.180508 0.613095 -0.180509
v 0.180508 0.520338 -0.180509
v 0.141825 0.613095 -0.212256
v 0.141825 0.520338 -0.212256
v 0.097690 0.613095 -0.235846
v 0.097690 0.520338 -0.235846
v 0.049802 0.613095 -0.250372
v 0.049802 0.520338 -0.250372
v 0.000000 0.613095 -0.255278
v 0.000000 0.520338 -0.255278
v -0.064180 0.538751 -0.322656
v -0.064180 0.498438 -0.322656
v -0.125893 0.538751 -0.303935
v -0.125893 0.498438 -0.303935
v -0.182769 0.538751 -0.273534
v -0.182769 0.498438 -0.273534
v -0.232621 0.538751 -0.232622
v -0.232621 0.498438 -0.232622
v -0.273534 0.538751 -0.182770
v -0.273534 0.498438 -0.182770
v -0.303934 0.538751 -0.125894
v -0.303934 0.498438 -0.125894
v -0.322655 0.538751 -0.064181
v -0.322655 0.498438 -0.064181
v -0.328976 0.538751 -0.000001
v -0.328976 0.498438 -0.000001
v -0.322655 0.538751 0.064180
v -0.322655 0.498438 0.064180
v -0.303935 0.538751 0.125893
v -0.303935 0.498438 0.125893
v -0.273534 0.538751 0.182769
v -0.273534 0.498438 0.182769
v -0.232622 0.538751 0.232621
v -0.232622 0.498438 0.232621
v -0.182770 0.538751 0.273534
v -0.182770 0.498438 0.273534
v -0.125894 0.538751 0.303934
v -0.125894 0.498438 0.303934
v -0.064180 0.538751 0.322655
v -0.064180 0.498438 0.322655
v -0.000000 0.538751 0.328976
v -0.000000 0.498438 0.328976
v 0.064180 0.538751 0.322655
v 0.064180 0.498438 0.322655
v 0.125894 0.538751 0.303935
v 0.125894 0.498438 0.303935
v 0.182770 0.538751 0.273534
v 0.182770 0.498438 0.273534
v 0.232622 0.538751 0.232621
v 0.232622 0.498438 0.232621
v 0.273534 0.538751 0.182769
v 0.273534 0.498438 0.182769
v 0.303935 0.538751 0.125894
v 0.303935 0.498438 0.125894
v 0.322655 0.538751 0.064180
v 0.322655 0.498438 0.064180
v 0.328977 0.538751 -0.000000
v 0.328977 0.498438 -0.000000
v 0.322655 0.538751 -0.064180
v 0.322655 0.498438 -0.064180
v 0.303935 0.538751 -0.125894
v 0.303935 0.498438 -0.125894
v 0.273534 0.538751 -0.182770
v 0.273534 0.498438 -0.182770
v 0.232622 0.538751 -0.232622
v 0.232622 0.498438 -0.232622
v 0.182770 0.538751 -0.273534
v 0.182770 0.498438 -0.273534
v 0.125894 0.538751 -0.303935
v 0.125894 0.498438 -0.303935
v 0.064180 0.538751 -0.322656
v 0.064180 0.498438 -0.322656
v 0.000000 0.538751 -0.328977
v 0.000000 0.498438 -0.328977
v 0.248758 0.639507 -0.000000
v 0.243979 0.639507 -0.048531
v 0.212255 0.520338 -0.141825
v 0.212255 0.613095 -0.141825
v 0.235846 0.520338 -0.097691
v 0.235846 0.613095 -0.097691
v 0.250372 0.520338 -0.049802
v 0.250372 0.613095 -0.049802
v 0.255277 0.520338 -0.000000
v 0.255277 0.613095 -0.000000
v 0.250372 0.520338 0.049802
v 0.250372 0.613095 0.049802
v 0.235846 0.520338 0.097690
v 0.235846 0.613095 0.097690
v 0.212255 0.520338 0.141824
v 0.212255 0.613095 0.141824
v 0.180508 0.520338 0.180508
v 0.180508 0.613095 0.180508
v 0.141825 0.520338 0.212255
v 0.141825 0.613095 0.212255
v 0.097690 0.520338 0.235845
v 0.097690 0.613095 0.235845
v 0.049802 0.520338 0.250372
v 0.049802 0.613095 0.250372
v -0.000000 0.520338 0.255277
v -0.000000 0.613095 0.255277
v -0.049802 0.520338 0.250372
v -0.049802 0.613095 0.250372
v -0.097690 0.520338 0.235845
v -0.097690 0.613095 0.235845
v -0.141825 0.520338 0.212255
v -0.141825 0.613095 0.212255
v -0.180508 0.520338 0.180508
v -0.180508 0.613095 0.180508
v -0.212255 0.520338 0.141824
v -0.212255 0.613095 0.141824
v -0.235846 0.520338 0.097690
v -0.235846 0.613095 0.097690
v -0.250372 0.520338 0.049802
v -0.250372 0.613095 0.049802
v -0.255277 0.520338 -0.000000
v -0.255277 0.613095 -0.000000
v -0.250372 0.520338 -0.049803
v -0.250372 0.613095 -0.049803
v -0.235845 0.520338 -0.097691
v -0.235845 0.613095 -0.097691
v -0.212255 0.520338 -0.141825
v -0.212255 0.613095 -0.141825
v -0.180508 0.520338 -0.180509
v -0.180508 0.613095 -0.180509
v -0.141824 0.520338 -0.212256
v -0.141824 0.613095 -0.212256
v -0.097690 0.520338 -0.235846
v -0.097690 0.613095 -0.235846
v -0.049802 0.520338 -0.250373
v -0.049802 0.613095 -0.250373
v 0.095196 0.639507 -0.229823
v 0.048530 0.639507 -0.243979
v 0.243979 0.639507 0.048530
v 0.138203 0.639507 -0.206835
v 0.229823 0.639507 0.095195
v 0.175899 0.639507 -0.175899
v 0.206835 0.639507 0.138202
v 0.206835 0.639507 -0.138203
v 0.175899 0.639507 0.175898
v 0.229823 0.639507 -0.095196
v 0.000000 0.639507 -0.248759
v 0.138203 0.639507 0.206835
v 0.095196 0.639507 0.229823
v 0.048530 0.639507 0.243978
v -0.000000 0.639507 0.248758
v -0.048530 0.639507 0.243978
v -0.095196 0.639507 0.229822
v -0.138203 0.639507 0.206835
v -0.175899 0.639507 0.175898
v -0.206835 0.639507 0.138202
v -0.229823 0.639507 0.095195
v -0.243978 0.639507 0.048530
v -0.248758 0.639507 -0.000000
v -0.243978 0.639507 -0.048531
v -0.229823 0.639507 -0.095196
v -0.206835 0.639507 -0.138203
v -0.175898 0.639507 -0.175899
v -0.138202 0.639507 -0.206835
v -0.095195 0.639507 -0.229823
v -0.048530 0.639507 -0.243979
v -0.085545 0.656639 -0.206526
v -0.124193 0.656639 -0.185868
v -0.219246 0.656639 0.043610
v -0.206525 0.656639 0.085545
v -0.158067 0.656639 -0.158068
v -0.185868 0.656639 0.124192
v -0.185868 0.656639 -0.124193
v -0.158068 0.656639 0.158067
v -0.206525 0.656639 -0.085546
v -0.124193 0.656639 0.185867
v -0.219246 0.656639 -0.043611
v -0.085546 0.656639 0.206525
v -0.223541 0.656639 -0.000000
v -0.043610 0.656639 -0.219246
v 0.000000 0.656639 -0.223541
v -0.043611 0.656639 0.219246
v -0.000000 0.656639 0.223541
v 0.043611 0.656639 0.219246
v 0.085546 0.656639 0.206525
v 0.124193 0.656639 0.185868
v 0.158068 0.656639 0.158067
v 0.219246 0.656639 -0.043611
v 0.206525 0.656639 -0.085546
v 0.043611 0.656639 -0.219246
v 0.185868 0.656639 -0.124193
v 0.185868 0.656639 0.124193
v 0.158068 0.656639 -0.158068
v 0.206525 0.656639 0.085545
v 0.124193 0.656639 -0.185868
v 0.219246 0.656639 0.043610
v 0.085546 0.656639 -0.206525
v 0.223541 0.656639 -0.000000
v -0.066575 0.669888 -0.160727
v -0.096652 0.669888 -0.144650
v -0.170626 0.669888 0.033939
v -0.160727 0.669888 0.066575
v -0.123015 0.669888 -0.123015
v -0.144650 0.669888 0.096652
v -0.144650 0.669888 -0.096653
v -0.123015 0.669888 0.123014
v -0.160726 0.669888 -0.066576
v -0.096652 0.669888 0.144650
v -0.170626 0.669888 -0.033940
v -0.066575 0.669888 0.160726
v -0.173969 0.669888 -0.000000
v -0.033939 0.669888 -0.170627
v 0.000000 0.669888 -0.173969
v -0.033940 0.669888 0.170626
v -0.000000 0.669888 0.173969
v 0.033940 0.669888 0.170626
v 0.066575 0.669888 0.160726
v 0.096652 0.669888 0.144650
v 0.123015 0.669888 0.123014
v 0.170626 0.669888 -0.033940
v 0.160727 0.669888 -0.066575
v 0.033940 0.669888 -0.170627
v 0.144650 0.669888 -0.096652
v 0.144650 0.669888 0.096652
v 0.123015 0.669888 -0.123015
v 0.160727 0.669888 0.066575
v 0.096652 0.669888 -0.144650
v 0.170626 0.669888 0.033939
v 0.066575 0.669888 -0.160727
v 0.173969 0.669888 -0.000000
v -0.084405 0.667463 0.084405
v -0.084405 1.014366 0.084405
v -0.084405 0.667463 0.041570
v -0.084405 1.014366 0.041570
v 0.084405 0.667463 0.084405
v 0.084405 1.014366 0.084405
v 0.084405 0.667463 0.041570
v 0.084405 1.014366 0.041570
v -0.074753 1.048942 0.084405
v -0.074753 1.048942 0.041570
v 0.074753 1.048942 0.041570
v 0.074753 1.048942 0.084405
v -0.049441 1.074588 0.084405
v -0.049441 1.074588 0.041570
v 0.049441 1.074588 0.041570
v 0.049441 1.074588 0.084405
v -0.019316 1.081989 0.084405
v -0.019316 1.081989 0.041570
v 0.019316 1.081989 0.041570
v 0.019316 1.081989 0.084405
v -0.084405 0.667463 -0.038507
v -0.084405 1.014366 -0.038507
v -0.084405 0.667463 -0.081342
v -0.084405 1.014366 -0.081342
v 0.084405 0.667463 -0.038507
v 0.084405 1.014366 -0.038507
v 0.084405 0.667463 -0.081342
v 0.084405 1.014366 -0.081342
v -0.074753 1.048942 -0.038507
v -0.074753 1.048942 -0.081342
v 0.074753 1.048942 -0.081342
v 0.074753 1.048942 -0.038507
v -0.049441 1.074588 -0.038507
v -0.049441 1.074588 -0.081342
v 0.049441 1.074588 -0.081342
v 0.049441 1.074588 -0.038507
v -0.019316 1.081989 -0.038507
v -0.019316 1.081989 -0.081342
v 0.019316 1.081989 -0.081342
v 0.019316 1.081989 -0.038507
vn 0.0980 0.0000 0.9952
vn 0.1637 0.8259 -0.5395
vn 0.5611 0.8259 -0.0553
vn 0.8819 0.0000 -0.4714
vn -0.9665 0.2385 0.0952
vn 0.4714 0.0000 0.8819
vn -0.0553 0.8259 -0.5611
vn 0.6344 0.0000 0.7730
vn 0.7730 0.0000 0.6344
vn 0.9665 0.2385 -0.0952
vn 0.8819 0.0000 0.4714
vn 0.9569 0.0000 0.2903
vn 0.4578 0.2385 0.8565
vn -0.1637 0.8259 -0.5395
vn 0.9952 0.0000 0.0980
vn 0.5395 0.8259 -0.1637
vn -0.2903 0.0000 0.9569
vn 0.9952 0.0000 -0.0980
vn 0.6161 0.2385 0.7507
vn 0.9569 0.0000 -0.2903
vn -0.8565 0.2385 0.4578
vn -0.5611 0.8259 0.0553
vn 0.2658 0.8259 -0.4972
vn -0.4714 0.0000 0.8819
vn 0.7730 0.0000 -0.6344
vn -0.7507 0.2385 0.6161
vn 0.6344 0.0000 -0.7730
vn -0.4578 0.2385 -0.8565
vn 0.3577 0.8259 0.4358
vn 0.4714 0.0000 -0.8819
vn -0.4972 0.8259 -0.2658
vn -0.6344 0.0000 0.7730
vn 0.2903 0.0000 -0.9569
vn -0.7730 0.0000 0.6344
vn 0.0980 0.0000 -0.9952
vn 0.2819 0.2385 -0.9293
vn 0.9293 0.2385 0.2819
vn 0.5395 0.8259 0.1637
vn -0.0980 0.0000 0.9952
vn 0.2903 0.0000 0.9569
vn 0.4972 0.8259 -0.2658
vn -0.9665 0.2385 -0.0952
vn 0.0952 0.2385 0.9665
vn -0.4358 0.8259 -0.3577
vn -0.1637 0.8259 0.5395
vn 0.7507 0.2385 -0.6161
vn 0.8565 0.2385 -0.4578
vn 0.4358 0.8259 0.3577
vn -0.5395 0.8259 -0.1637
vn -0.0952 0.2385 0.9665
vn -0.8819 0.0000 0.4714
vn 0.9665 0.2385 0.0952
vn -0.9569 0.0000 0.2903
vn -0.0553 0.8259 0.5611
vn -0.9952 0.0000 0.0980
vn 0.4972 0.8259 0.2658
vn -0.7507 0.2385 -0.6161
vn -0.9952 0.0000 -0.0980
vn -0.8565 0.2385 -0.4578
vn -0.9569 0.0000 -0.2903
vn 0.3577 0.8259 -0.4358
vn -0.8819 0.0000 -0.4714
vn 0.1637 0.8259 0.5395
vn 0.6161 0.2385 -0.7507
vn -0.7730 0.0000 -0.6344
vn -0.4578 0.2385 0.8565
vn -0.6344 0.0000 -0.7730
vn -0.3577 0.8259 0.4358
vn -0.4714 0.0000 -0.8819
vn 0.0000 1.0000 0.0000
vn 0.0952 0.2385 -0.9665
vn -0.2903 0.0000 -0.9569
vn -0.6161 0.2385 -0.7507
vn -0.2658 0.8259 0.4972
vn -0.0980 0.0000 -0.9952
vn 0.0000 -1.0000 -0.0000
vn -0.0952 0.2385 -0.9665
vn -0.5611 0.8259 -0.0553
vn 0.8565 0.2385 0.4578
vn -0.2658 0.8259 -0.4972
vn -0.2819 0.2385 0.9293
vn -0.4972 0.8259 0.2658
vn -0.9293 0.2385 -0.2819
vn 0.0553 0.8259 0.5611
vn 0.9293 0.2385 -0.2819
vn -0.5395 0.8259 0.1637
vn 0.4578 0.2385 -0.8565
vn 0.4358 0.8259 -0.3577
vn 0.7507 0.2385 0.6161
vn -0.4358 0.8259 0.3577
vn 0.2819 0.2385 0.9293
vn 0.0553 0.8259 -0.5611
vn -0.9293 0.2385 0.2819
vn 0.2005 0.9658 0.1645
vn 0.5611 0.8259 0.0553
vn -0.6161 0.2385 0.7507
vn -0.3577 0.8259 -0.4358
vn -0.2819 0.2385 -0.9293
vn 0.2658 0.8259 0.4972
vn -0.2581 0.9658 0.0254
vn 0.2005 0.9658 -0.1645
vn -0.2581 0.9658 -0.0254
vn 0.2287 0.9658 0.1223
vn -0.0753 0.9658 -0.2482
vn 0.1645 0.9658 -0.2005
vn -0.0254 0.9658 -0.2581
vn -0.1223 0.9658 -0.2287
vn 0.2482 0.9658 0.0753
vn -0.0753 0.9658 0.2482
vn -0.2482 0.9658 0.0753
vn 0.1223 0.9658 -0.2287
vn -0.0254 0.9658 0.2581
vn -0.1645 0.9658 -0.2005
vn 0.2581 0.9658 0.0254
vn 0.0254 0.9658 0.2581
vn -0.2287 0.9658 0.1223
vn 0.0753 0.9658 -0.2482
vn 0.0753 0.9658 0.2482
vn -0.2005 0.9658 -0.1645
vn 0.2581 0.9658 -0.0254
vn 0.1223 0.9658 0.2287
vn -0.2005 0.9658 0.1645
vn 0.1645 0.9658 0.2005
vn -0.2287 0.9658 -0.1223
vn 0.2482 0.9658 -0.0753
vn -0.1645 0.9658 0.2005
vn 0.0254 0.9658 -0.2581
vn -0.2482 0.9658 -0.0753
vn 0.2287 0.9658 -0.1223
vn -0.1223 0.9658 0.2287
vn -1.0000 0.0000 0.0000
vn 0.0000 0.0000 -1.0000
vn 1.0000 0.0000 0.0000
vn 0.0000 0.0000 1.0000
vn -0.9632 0.2689 0.0000
vn -0.7117 0.7024 0.0000
vn 0.9632 0.2689 0.0000
vn 0.7117 0.7024 0.0000
vn 0.2386 0.9711 0.0000
vn -0.2386 0.9711 0.0000
usemtl Material
s off
f 97//1 98//1 100//1 99//1
f 131//2 132//2 184//2 191//2
f 75//3 76//3 182//3 192//3
f 77//4 78//4 80//4 79//4
f 116//5 114//5 152//5 153//5
f 48//6 47//6 45//6 46//6
f 141//7 160//7 174//7 175//7
f 50//8 49//8 47//8 48//8
f 52//9 51//9 49//9 50//9
f 84//10 82//10 76//10 75//10
f 54//11 53//11 51//11 52//11
f 56//12 55//12 53//12 54//12
f 96//13 94//13 142//13 143//13
f 160//14 159//14 161//14 174//14
f 58//15 57//15 55//15 56//15
f 76//16 140//16 183//16 182//16
f 101//17 102//17 104//17 103//17
f 60//18 59//18 57//18 58//18
f 81//18 82//18 84//18 83//18
f 94//19 92//19 139//19 142//19
f 62//20 61//20 59//20 60//20
f 112//21 110//21 150//21 151//21
f 153//22 152//22 163//22 173//22
f 64//4 63//4 61//4 62//4
f 134//23 131//23 191//23 189//23
f 103//24 104//24 106//24 105//24
f 66//25 65//25 63//25 64//25
f 83//15 84//15 86//15 85//15
f 110//26 108//26 149//26 150//26
f 68//27 67//27 65//27 66//27
f 128//28 126//28 158//28 159//28
f 142//29 139//29 181//29 180//29
f 70//30 69//30 67//30 68//30
f 156//31 155//31 169//31 167//31
f 105//32 106//32 108//32 107//32
f 72//33 71//33 69//33 70//33
f 85//12 86//12 88//12 87//12
f 107//34 108//34 110//34 109//34
f 74//35 73//35 71//35 72//35
f 5//36 7//36 132//36 131//36
f 88//37 86//37 133//37 135//37
f 135//38 133//38 190//38 188//38
f 79//20 80//20 82//20 81//20
f 99//39 100//39 102//39 101//39
f 46//40 45//40 43//40 44//40
f 140//41 138//41 185//41 183//41
f 118//42 116//42 153//42 154//42
f 44//1 43//1 41//1 42//1
f 100//43 98//43 144//43 145//43
f 2//25 1//25 78//25 77//25
f 42//39 41//39 39//39 40//39
f 95//40 96//40 98//40 97//40
f 157//44 156//44 167//44 165//44
f 40//17 39//17 37//17 38//17
f 147//45 146//45 176//45 172//45
f 78//46 1//46 136//46 138//46
f 38//24 37//24 35//24 36//24
f 80//47 78//47 138//47 140//47
f 4//27 3//27 1//27 2//27
f 36//32 35//32 33//32 34//32
f 93//6 94//6 96//6 95//6
f 139//48 137//48 186//48 181//48
f 34//34 33//34 31//34 32//34
f 155//49 154//49 171//49 169//49
f 102//50 100//50 145//50 146//50
f 32//51 31//51 29//51 30//51
f 86//52 84//52 75//52 133//52
f 6//30 5//30 3//30 4//30
f 30//53 29//53 27//53 28//53
f 91//8 92//8 94//8 93//8
f 146//54 145//54 177//54 176//54
f 28//55 27//55 25//55 26//55
f 137//56 135//56 188//56 186//56
f 124//57 122//57 156//57 157//57
f 26//58 25//58 23//58 24//58
f 122//59 120//59 155//59 156//59
f 8//33 7//33 5//33 6//33
f 24//60 23//60 21//60 22//60
f 89//9 90//9 92//9 91//9
f 136//61 134//61 189//61 187//61
f 22//62 21//62 19//62 20//62
f 144//63 143//63 179//63 178//63
f 1//64 3//64 134//64 136//64
f 20//65 19//65 17//65 18//65
f 106//66 104//66 147//66 148//66
f 10//35 9//35 7//35 8//35
f 18//67 17//67 15//67 16//67
f 87//11 88//11 90//11 89//11
f 149//68 148//68 170//68 168//68
f 16//69 15//69 13//69 14//69
f 43//70 45//70 47//70 49//70 51//70 53//70 55//70 57//70 59//70 61//70 63//70 65//70 67//70 69//70 71//70 73//70 11//70 13//70 15//70 17//70 19//70 21//70 23//70 25//70 27//70 29//70 31//70 33//70 35//70 37//70 39//70 41//70
f 7//71 9//71 141//71 132//71
f 14//72 13//72 11//72 12//72
f 126//73 124//73 157//73 158//73
f 148//74 147//74 172//74 170//74
f 12//75 11//75 73//75 74//75
f 46//76 44//76 42//76 40//76 38//76 36//76 34//76 32//76 30//76 28//76 26//76 24//76 22//76 20//76 18//76 16//76 14//76 12//76 74//76 72//76 70//76 68//76 66//76 64//76 62//76 60//76 58//76 56//76 54//76 52//76 50//76 48//76
f 9//77 130//77 160//77 141//77
f 154//78 153//78 173//78 171//78
f 109//51 110//51 112//51 111//51
f 90//79 88//79 135//79 137//79
f 159//80 158//80 162//80 161//80
f 111//53 112//53 114//53 113//53
f 104//81 102//81 146//81 147//81
f 151//82 150//82 166//82 164//82
f 113//55 114//55 116//55 115//55
f 120//83 118//83 154//83 155//83
f 145//84 144//84 178//84 177//84
f 115//58 116//58 118//58 117//58
f 82//85 80//85 140//85 76//85
f 152//86 151//86 164//86 163//86
f 117//60 118//60 120//60 119//60
f 3//87 5//87 131//87 134//87
f 138//88 136//88 187//88 185//88
f 119//62 120//62 122//62 121//62
f 92//89 90//89 137//89 139//89
f 150//90 149//90 168//90 166//90
f 121//65 122//65 124//65 123//65
f 98//91 96//91 143//91 144//91
f 132//92 141//92 175//92 184//92
f 123//67 124//67 126//67 125//67
f 114//93 112//93 151//93 152//93
f 181//94 186//94 218//94 213//94
f 125//69 126//69 128//69 127//69
f 133//95 75//95 192//95 190//95
f 99//76 101//76 103//76 105//76 107//76 109//76 111//76 113//76 115//76 117//76 119//76 121//76 123//76 125//76 127//76 129//76 10//76 8//76 6//76 4//76 2//76 77//76 79//76 81//76 83//76 85//76 87//76 89//76 91//76 93//76 95//76 97//76
f 127//72 128//72 130//72 129//72
f 108//96 106//96 148//96 149//96
f 158//97 157//97 165//97 162//97
f 129//75 130//75 9//75 10//75
f 130//98 128//98 159//98 160//98
f 143//99 142//99 180//99 179//99
f 208//70 209//70 210//70 211//70 212//70 213//70 218//70 220//70 222//70 224//70 214//70 215//70 217//70 219//70 221//70 223//70 216//70 207//70 206//70 193//70 194//70 197//70 199//70 201//70 203//70 205//70 195//70 196//70 198//70 200//70 202//70 204//70
f 173//100 163//100 195//100 205//100
f 185//101 187//101 219//101 217//101
f 171//102 173//102 205//102 203//102
f 186//103 188//103 220//103 218//103
f 174//104 161//104 193//104 206//104
f 187//105 189//105 221//105 219//105
f 175//106 174//106 206//106 207//106
f 161//107 162//107 194//107 193//107
f 188//108 190//108 222//108 220//108
f 172//109 176//109 208//109 204//109
f 163//110 164//110 196//110 195//110
f 189//111 191//111 223//111 221//111
f 176//112 177//112 209//112 208//112
f 162//113 165//113 197//113 194//113
f 190//114 192//114 224//114 222//114
f 177//115 178//115 210//115 209//115
f 164//116 166//116 198//116 196//116
f 191//117 184//117 216//117 223//117
f 178//118 179//118 211//118 210//118
f 165//119 167//119 199//119 197//119
f 192//120 182//120 214//120 224//120
f 179//121 180//121 212//121 211//121
f 166//122 168//122 200//122 198//122
f 180//123 181//123 213//123 212//123
f 167//124 169//124 201//124 199//124
f 182//125 183//125 215//125 214//125
f 168//126 170//126 202//126 200//126
f 184//127 175//127 207//127 216//127
f 169//128 171//128 203//128 201//128
f 183//129 185//129 217//129 215//129
f 170//130 172//130 204//130 202//130
f 226//131 228//131 227//131 225//131
f 228//132 232//132 231//132 227//132
f 232//133 230//133 229//133 231//133
f 230//134 226//134 225//134 229//134
f 225//76 227//76 231//76 229//76
f 228//135 226//135 233//135 234//135
f 234//136 233//136 237//136 238//136
f 226//134 230//134 236//134 233//134
f 232//132 228//132 234//132 235//132
f 230//137 232//137 235//137 236//137
f 237//134 240//134 244//134 241//134
f 233//134 236//134 240//134 237//134
f 235//132 234//132 238//132 239//132
f 236//138 235//138 239//138 240//138
f 244//70 243//70 242//70 241//70
f 239//132 238//132 242//132 243//132
f 240//139 239//139 243//139 244//139
f 238//140 237//140 241//140 242//140
f 246//131 248//131 247//131 245//131
f 248//132 252//132 251//132 247//132
f 252//133 250//133 249//133 251//133
f 250//134 246//134 245//134 249//134
f 245//76 247//76 251//76 249//76
f 248//135 246//135 253//135 254//135
f 254//136 253//136 257//136 258//136
f 246//134 250//134 256//134 253//134
f 252//132 248//132 254//132 255//132
f 250//137 252//137 255//137 256//137
f 257//134 260//134 264//134 261//134
f 253//134 256//134 260//134 257//134
f 255//132 254//132 258//132 259//132
f 256//138 255//138 259//138 260//138
f 264//70 263//70 262//70 261//70
f 259//132 258//132 262//132 263//132
f 260//139 259//139 263//139 264//139
f 258//140 257//140 261//140 262//140
